<svg width="40" height="40" viewBox="0 0 40 40" fill="none" xmlns="http://www.w3.org/2000/svg">
<path fill-rule="evenodd" clip-rule="evenodd" d="M9.7898 2.5H30.2088C34.2366 2.5 37.5 6.0112 37.5 10.3428V29.6572C37.5 33.9888 34.2366 37.5 30.2102 37.5H9.7898C5.7634 37.5 2.5 33.9888 2.5 29.6572V10.3428C2.5 6.0112 5.7634 2.5 9.7898 2.5Z" fill="#0052FF"/>
<path fill-rule="evenodd" clip-rule="evenodd" d="M19.9999 7.5694C26.8655 7.5694 32.4305 13.1344 32.4305 20C32.4305 26.8656 26.8655 32.4306 19.9999 32.4306C13.1343 32.4306 7.56934 26.8656 7.56934 20C7.56934 13.1344 13.1343 7.5694 19.9999 7.5694Z" fill="white"/>
<path fill-rule="evenodd" clip-rule="evenodd" d="M16.9383 16.0268H23.0605C23.5645 16.0268 23.9719 16.4664 23.9719 17.0068V22.9918C23.9719 23.5336 23.5631 23.9718 23.0605 23.9718H16.9383C16.4343 23.9718 16.0269 23.5322 16.0269 22.9918V17.0068C16.0269 16.4664 16.4357 16.0268 16.9383 16.0268Z" fill="#0052FF"/>
</svg>
