<svg width="20" height="20" viewBox="0 0 20 20" fill="none" xmlns="http://www.w3.org/2000/svg">
<path d="M4 14.5H5.5V16H14.5V4H5.5V5.5H4V3.25C4 3.05109 4.07902 2.86032 4.21967 2.71967C4.36032 2.57902 4.55109 2.5 4.75 2.5H15.25C15.4489 2.5 15.6397 2.57902 15.7803 2.71967C15.921 2.86032 16 3.05109 16 3.25V16.75C16 16.9489 15.921 17.1397 15.7803 17.2803C15.6397 17.421 15.4489 17.5 15.25 17.5H4.75C4.55109 17.5 4.36032 17.421 4.21967 17.2803C4.07902 17.1397 4 16.9489 4 16.75V14.5ZM5.5 9.25H10.75V10.75H5.5V13L1.75 10L5.5 7V9.25Z" fill="#131313"/>
</svg>
