<svg width="40" height="40" viewBox="0 0 40 40" fill="none" xmlns="http://www.w3.org/2000/svg">
<path d="M35.7567 3.74985L22.0999 13.9094L24.6253 7.91539L35.7567 3.74985Z" fill="#E2761B"/>
<path fill-rule="evenodd" clip-rule="evenodd" d="M35.817 3.71702C35.8334 3.74704 35.8251 3.78451 35.7977 3.80491L22.1408 13.9644C22.116 13.9829 22.0819 13.9825 22.0575 13.9634C22.0332 13.9443 22.0246 13.9112 22.0366 13.8827L24.5621 7.88874C24.5695 7.87135 24.5836 7.85773 24.6013 7.85112L35.7327 3.68558C35.7647 3.6736 35.8007 3.687 35.817 3.71702ZM24.6771 7.9693L22.2608 13.7041L35.3272 3.98388L24.6771 7.9693Z" fill="#E2761B"/>
<path d="M4.22926 3.74985L17.7763 14.0056L15.3744 7.91539L4.22926 3.74985ZM30.843 27.2996L27.2057 32.8811L34.9881 35.0258L37.2253 27.4233L30.843 27.2996ZM2.78809 27.4233L5.01162 35.0258L12.794 32.8811L9.15671 27.2996L2.78809 27.4233Z" fill="#E4761B"/>
<path fill-rule="evenodd" clip-rule="evenodd" d="M4.16915 3.71678C4.18557 3.68693 4.2214 3.67364 4.25331 3.68557L15.3984 7.85111C15.4166 7.85791 15.4311 7.87213 15.4382 7.89021L17.8402 13.9804C17.8515 14.009 17.8423 14.0417 17.8178 14.0603C17.7933 14.0789 17.7595 14.0789 17.7349 14.0603L4.18786 3.80457C4.1607 3.784 4.15274 3.74663 4.16915 3.71678ZM4.645 3.97849L17.6228 13.8033L15.3218 7.96898L4.645 3.97849ZM9.15541 27.231C9.17908 27.2305 9.20131 27.2423 9.21424 27.2621L12.8515 32.8437C12.8634 32.862 12.8659 32.885 12.8582 32.9055C12.8504 32.9259 12.8333 32.9415 12.8122 32.9473L5.02987 35.0919C4.99374 35.1019 4.95629 35.081 4.94577 35.045L2.72224 27.4426C2.71624 27.4221 2.72014 27.3999 2.7328 27.3827C2.74545 27.3655 2.76541 27.3551 2.78678 27.3547L9.15541 27.231ZM30.7855 27.2621C30.7984 27.2423 30.8207 27.2305 30.8443 27.231L37.2267 27.3547C37.2481 27.3551 37.2681 27.3655 37.2807 27.3827C37.2934 27.4 37.2972 27.4222 37.2912 27.4427L35.054 35.0451C35.0434 35.0811 35.006 35.1019 34.9699 35.0919L27.1875 32.9473C27.1664 32.9415 27.1493 32.9259 27.1416 32.9055C27.1338 32.885 27.1363 32.862 27.1483 32.8437L30.7855 27.2621ZM2.87917 27.4902L5.05854 34.9417L12.6852 32.8399L9.12002 27.3689L2.87917 27.4902ZM30.8797 27.3689L27.3145 32.8399L34.9413 34.9417L37.1342 27.4902L30.8797 27.3689Z" fill="#E4761B"/>
<path d="M12.3549 17.8679L10.1863 21.1536L17.9137 21.4972L17.6392 13.1799L12.3549 17.8679ZM27.6314 17.8679L22.2784 13.0837L22.1 21.4972L29.8137 21.1536L27.6314 17.8679ZM12.7941 32.8803L17.4333 30.6119L13.4255 27.4775L12.7941 32.8803ZM22.5529 30.6119L27.2059 32.8803L26.5608 27.4775L22.5529 30.6119Z" fill="#E4761B"/>
<path fill-rule="evenodd" clip-rule="evenodd" d="M22.2511 13.0207C22.2757 13.0101 22.3042 13.0146 22.3242 13.0325L27.6905 17.8286L27.6886 17.8299L29.8709 21.1156C29.8846 21.1362 29.8861 21.1626 29.8749 21.1846C29.8637 21.2067 29.8415 21.221 29.8168 21.2221L22.1031 21.5658C22.0841 21.5666 22.0657 21.5596 22.0521 21.5463C22.0385 21.5331 22.031 21.5148 22.0314 21.4958L22.2098 13.0822C22.2104 13.0554 22.2265 13.0314 22.2511 13.0207ZM22.3439 13.2342L22.1702 21.4254L29.6894 21.0904L27.5791 17.9132L22.3439 13.2342ZM17.6664 13.1169C17.6908 13.1274 17.707 13.1511 17.7078 13.1776L17.9823 21.495C17.983 21.5141 17.9756 21.5326 17.962 21.546C17.9484 21.5595 17.9298 21.5667 17.9107 21.5658L10.1833 21.2221C10.1586 21.221 10.1364 21.2067 10.1252 21.1847C10.1139 21.1627 10.1154 21.1364 10.129 21.1157L12.2977 17.8301C12.301 17.8251 12.3049 17.8205 12.3094 17.8165L17.5937 13.1286C17.6136 13.1109 17.6419 13.1064 17.6664 13.1169ZM12.4072 17.9132L10.3102 21.0904L17.8427 21.4254L17.5755 13.3282L12.4072 17.9132ZM13.3991 27.4141C13.422 27.4046 13.4483 27.4081 13.4678 27.4234L17.4756 30.5579C17.4943 30.5724 17.5041 30.5956 17.5016 30.6191C17.4992 30.6426 17.4848 30.6632 17.4635 30.6736L12.8243 32.942C12.8017 32.953 12.775 32.9508 12.7545 32.9363C12.734 32.9218 12.7231 32.8973 12.726 32.8723L13.3574 27.4695C13.3602 27.4449 13.3762 27.4237 13.3991 27.4141ZM26.5872 27.4141C26.61 27.4236 26.626 27.4447 26.629 27.4693L27.2741 32.8722C27.277 32.8971 27.2662 32.9217 27.2457 32.9362C27.2252 32.9508 27.1984 32.953 27.1758 32.942L22.5229 30.6736C22.5016 30.6633 22.4872 30.6427 22.4847 30.6191C22.4822 30.5956 22.4921 30.5725 22.5107 30.5579L26.5185 27.4234C26.5381 27.4081 26.5643 27.4046 26.5872 27.4141ZM13.4795 27.6068L12.8769 32.7634L17.3047 30.5984L13.4795 27.6068ZM22.6817 30.5984L27.1228 32.7635L26.5071 27.6066L22.6817 30.5984Z" fill="#E4761B"/>
<path d="M27.2057 32.8814L22.5528 30.613L22.9234 33.6513L22.8822 34.9298L27.2057 32.8814ZM12.7939 32.8814L17.1175 34.9298L17.09 33.6513L17.4332 30.613L12.7939 32.8814Z" fill="#D7C1B3"/>
<path fill-rule="evenodd" clip-rule="evenodd" d="M22.513 30.5571C22.5334 30.5425 22.5603 30.5403 22.5829 30.5513L27.2358 32.8197C27.2595 32.8313 27.2745 32.8554 27.2744 32.8818C27.2742 32.9082 27.259 32.9321 27.2351 32.9434L22.9116 34.9918C22.89 35.0021 22.8646 35.0003 22.8446 34.9872C22.8246 34.9741 22.8128 34.9515 22.8136 34.9276L22.8546 33.6543L22.4847 30.6213C22.4816 30.5964 22.4925 30.5717 22.513 30.5571ZM17.4727 30.5569C17.4932 30.5714 17.5042 30.5958 17.5014 30.6207L17.1588 33.6544L17.1861 34.9283C17.1866 34.9521 17.1748 34.9745 17.1548 34.9874C17.1349 35.0003 17.1096 35.002 17.0881 34.9918L12.7646 32.9434C12.7408 32.9321 12.7255 32.9082 12.7253 32.8818C12.7252 32.8555 12.7401 32.8313 12.7638 32.8197L17.403 30.5514C17.4255 30.5404 17.4523 30.5425 17.4727 30.5569ZM22.6362 30.73L22.9928 33.6535L22.9544 34.8196L27.0473 32.8805L22.6362 30.73ZM12.9522 32.8804L17.0465 34.8202L17.0212 33.6435L17.351 30.7296L12.9522 32.8804Z" fill="#D7C1B3"/>
<path d="M17.1863 25.471L13.3157 24.33L16.047 23.0789L17.1863 25.471ZM22.8 25.471L23.9392 23.0789L26.6843 24.33L22.8 25.471Z" fill="#233447"/>
<path fill-rule="evenodd" clip-rule="evenodd" d="M16.0185 23.0166C16.0526 23.0009 16.0929 23.0156 16.109 23.0495L17.2482 25.4415C17.2599 25.466 17.2561 25.495 17.2385 25.5156C17.2209 25.5362 17.1929 25.5445 17.1669 25.5369L13.2963 24.3958C13.2688 24.3877 13.2493 24.3634 13.2472 24.3349C13.2452 24.3063 13.2611 24.2795 13.2871 24.2676L16.0185 23.0166ZM23.8773 23.0495C23.8934 23.0156 23.9336 23.001 23.9677 23.0165L26.7128 24.2675C26.7389 24.2794 26.7548 24.3063 26.7528 24.3349C26.7508 24.3634 26.7312 24.3878 26.7037 24.3958L22.8194 25.5369C22.7934 25.5445 22.7654 25.5362 22.7478 25.5156C22.7302 25.495 22.7264 25.466 22.7381 25.4415L23.8773 23.0495ZM23.9722 23.1694L22.928 25.3619L26.4883 24.3161L23.9722 23.1694ZM13.511 24.316L17.0582 25.3617L16.0142 23.1695L13.511 24.316Z" fill="#233447"/>
<path d="M12.7942 32.8812L13.4531 27.2997L9.15698 27.4234L12.7942 32.8812ZM26.5472 27.2997L27.206 32.8812L30.8433 27.4234L26.5472 27.2997ZM29.8138 21.1545L22.1001 21.4982L22.8138 25.4712L23.9531 23.0792L26.6982 24.3302L29.8138 21.1545ZM13.3158 24.3302L16.0609 23.0792L17.1864 25.4712L17.9138 21.4982L10.1864 21.1545L13.3158 24.3302Z" fill="#CD6116"/>
<path fill-rule="evenodd" clip-rule="evenodd" d="M10.1235 21.1266C10.1349 21.1008 10.161 21.0847 10.1892 21.0859L17.9167 21.4296C17.9365 21.4305 17.955 21.4399 17.9673 21.4554C17.9797 21.4709 17.9847 21.491 17.9811 21.5105L17.2537 25.4836C17.2483 25.5129 17.2246 25.5354 17.195 25.5393C17.1655 25.5431 17.1368 25.5274 17.1241 25.5005L16.0275 23.1697L13.344 24.3926C13.3178 24.4046 13.2869 24.3989 13.2667 24.3784L10.1373 21.2026C10.1175 21.1825 10.112 21.1524 10.1235 21.1266ZM29.8763 21.1265C29.8878 21.1523 29.8824 21.1824 29.8626 21.2025L26.7469 24.3782C26.7267 24.3989 26.6958 24.4046 26.6695 24.3926L23.9858 23.1696L22.8756 25.5007C22.8628 25.5277 22.834 25.5432 22.8045 25.5393C22.775 25.5353 22.7514 25.5127 22.7461 25.4834L22.0324 21.5103C22.0289 21.4908 22.0339 21.4708 22.0463 21.4553C22.0586 21.4399 22.0771 21.4305 22.0968 21.4296L29.8106 21.0859C29.8387 21.0847 29.8648 21.1008 29.8763 21.1265ZM10.3577 21.2308L13.3308 24.2478L16.0322 23.0167C16.0664 23.0011 16.1068 23.0159 16.1228 23.0499L17.1572 25.2485L17.8319 21.5632L10.3577 21.2308ZM22.1813 21.5632L22.8434 25.249L23.8909 23.0496C23.907 23.0158 23.9472 23.0012 23.9813 23.0167L26.6826 24.2478L29.6426 21.2308L22.1813 21.5632ZM13.5035 27.2533C13.5169 27.2681 13.5233 27.2879 13.521 27.3077L12.8622 32.8893C12.8588 32.9178 12.838 32.9413 12.81 32.948C12.782 32.9547 12.7529 32.9432 12.7369 32.9193L9.09965 27.4615C9.08582 27.4407 9.08434 27.4141 9.0958 27.3919C9.10726 27.3697 9.12984 27.3555 9.15479 27.3548L13.4509 27.2311C13.4708 27.2305 13.49 27.2386 13.5035 27.2533ZM26.4963 27.2533C26.5098 27.2386 26.529 27.2305 26.5489 27.2311L30.845 27.3548C30.87 27.3555 30.8925 27.3697 30.904 27.3919C30.9155 27.4141 30.914 27.4407 30.9002 27.4615L27.2629 32.9193C27.2469 32.9432 27.2178 32.9547 27.1898 32.948C27.1618 32.9413 27.141 32.9178 27.1376 32.8893L26.4788 27.3077C26.4765 27.2879 26.4829 27.2681 26.4963 27.2533ZM9.28257 27.4884L12.7477 32.688L13.3754 27.3706L9.28257 27.4884ZM26.6244 27.3706L27.2521 32.688L30.7172 27.4884L26.6244 27.3706Z" fill="#CD6116"/>
<path d="M10.1863 21.1545L13.4255 27.4784L13.3157 24.3302L10.1863 21.1545ZM26.698 24.3302L26.5608 27.4784L29.8137 21.1545L26.698 24.3302ZM17.9137 21.4982L17.1863 25.4712L18.0922 30.1592L18.298 23.9865L17.9137 21.4982ZM22.1 21.4982L21.7294 23.9728L21.8941 30.1592L22.8137 25.4712L22.1 21.4982Z" fill="#E4751F"/>
<path fill-rule="evenodd" clip-rule="evenodd" d="M29.8539 21.0988C29.8814 21.1187 29.8903 21.1557 29.8748 21.1859L26.6218 27.5098C26.6071 27.5385 26.5744 27.553 26.5432 27.5447C26.5121 27.5365 26.4909 27.5076 26.4923 27.4754L26.6295 24.3272C26.6303 24.3103 26.6372 24.2942 26.6491 24.2821L29.7648 21.1064C29.7885 21.0822 29.8264 21.079 29.8539 21.0988ZM10.1461 21.0988C10.1736 21.079 10.2114 21.0822 10.2352 21.1063L13.3646 24.282C13.3767 24.2943 13.3837 24.3106 13.3843 24.3278L13.4941 27.476C13.4952 27.5081 13.4739 27.5367 13.4428 27.5448C13.4117 27.5529 13.3791 27.5383 13.3644 27.5097L10.1252 21.1858C10.1098 21.1556 10.1187 21.1187 10.1461 21.0988ZM10.4512 21.521L13.3462 27.173L13.2481 24.3593L10.4512 21.521ZM26.7655 24.3595L26.643 27.1686L29.5456 21.5258L26.7655 24.3595ZM17.9147 21.4295C17.9482 21.43 17.9765 21.4546 17.9816 21.4877L18.3679 23.9888L18.1608 30.1615C18.1596 30.1964 18.1324 30.2249 18.0976 30.2276C18.0628 30.2304 18.0314 30.2065 18.0248 30.1722L17.1189 25.4843C17.1173 25.4759 17.1173 25.4673 17.1188 25.4589L17.8463 21.4858C17.8523 21.4529 17.8812 21.4291 17.9147 21.4295ZM22.099 21.4295C22.1326 21.4291 22.1616 21.453 22.1676 21.486L22.8813 25.4591C22.8828 25.4675 22.8827 25.4761 22.8811 25.4844L21.9615 30.1724C21.9548 30.2067 21.9233 30.2305 21.8884 30.2276C21.8536 30.2247 21.8265 30.196 21.8256 30.161L21.6605 23.9624L22.0322 21.488C22.0371 21.4548 22.0654 21.43 22.099 21.4295ZM17.2561 25.4709L18.0439 29.5477L18.2293 23.9906L17.908 21.9106L17.2561 25.4709ZM22.1062 21.9205L21.7982 23.9769L21.9462 29.5371L22.7439 25.4707L22.1062 21.9205Z" fill="#E4751F"/>
<path d="M22.8137 25.4708L21.8941 30.1588L22.5529 30.6124L26.5608 27.478L26.698 24.3297L22.8137 25.4708ZM13.3157 24.3297L13.4255 27.478L17.4333 30.6124L18.0921 30.1588L17.1863 25.4708L13.3157 24.3297Z" fill="#F6851B"/>
<path fill-rule="evenodd" clip-rule="evenodd" d="M26.7404 24.2757C26.7578 24.2894 26.7676 24.3106 26.7666 24.3327L26.6294 27.4809C26.6285 27.501 26.6189 27.5196 26.6031 27.532L22.5952 30.6665C22.5716 30.6849 22.5387 30.6859 22.514 30.6689L21.8552 30.2153C21.8327 30.1998 21.8215 30.1724 21.8268 30.1455L22.7464 25.4576C22.7513 25.4325 22.7698 25.4122 22.7944 25.4049L26.6787 24.2639C26.7 24.2576 26.7229 24.262 26.7404 24.2757ZM13.2736 24.2755C13.2911 24.262 13.3139 24.2577 13.3351 24.2639L17.2057 25.405C17.2303 25.4122 17.2488 25.4326 17.2537 25.4578L18.1595 30.1457C18.1647 30.1725 18.1536 30.1998 18.1311 30.2153L17.4723 30.6689C17.4476 30.6859 17.4147 30.6849 17.3911 30.6665L13.3832 27.532C13.3673 27.5195 13.3576 27.5006 13.3569 27.4803L13.2471 24.3321C13.2463 24.3101 13.2562 24.289 13.2736 24.2755ZM22.8731 25.5249L21.9701 30.1278L22.5504 30.5273L26.4936 27.4434L26.6253 24.4226L22.8731 25.5249ZM13.3876 24.4225L17.1268 25.5248L18.0163 30.1277L17.4359 30.5273L13.493 27.4436L13.3876 24.4225Z" fill="#F6851B"/>
<path d="M22.8822 34.9295L22.9234 33.6509L22.5802 33.3485H17.4057L17.09 33.6509L17.1175 34.9295L12.7939 32.8811L14.3037 34.1184L17.3645 36.2492H22.6214L25.6959 34.1184L27.2057 32.8811L22.8822 34.9295Z" fill="#C0AD9E"/>
<path fill-rule="evenodd" clip-rule="evenodd" d="M12.736 32.8444C12.7545 32.8151 12.792 32.8042 12.8234 32.8191L17.0465 34.8199L17.0214 33.6524C17.021 33.6332 17.0287 33.6147 17.0426 33.6014L17.3583 33.2989C17.371 33.2867 17.388 33.2799 17.4057 33.2799H22.5802C22.597 33.2799 22.6131 33.286 22.6256 33.297L22.9688 33.5995C22.9841 33.613 22.9926 33.6327 22.992 33.6532L22.9544 34.8193L27.1764 32.8191C27.2077 32.8042 27.2452 32.8151 27.2637 32.8444C27.2823 32.8737 27.2761 32.9122 27.2492 32.9342L25.7352 34.175L22.6605 36.3057C22.649 36.3136 22.6354 36.3179 22.6214 36.3179H17.3646C17.3505 36.3179 17.3369 36.3136 17.3254 36.3056L14.2601 34.1716L12.7505 32.9342C12.7237 32.9122 12.7174 32.8737 12.736 32.8444ZM13.2703 33.1827L14.3452 34.0636L17.3861 36.1806H22.6L25.6546 34.0635L26.7294 33.1827L22.9116 34.9915C22.89 35.0017 22.8646 35 22.8446 34.9869C22.8246 34.9738 22.8128 34.9512 22.8136 34.9273L22.8538 33.6811L22.5543 33.4171H17.4333L17.1593 33.6796L17.1861 34.928C17.1866 34.9518 17.1748 34.9741 17.1548 34.9871C17.1349 35 17.1096 35.0017 17.0881 34.9915L13.2703 33.1827Z" fill="#C0AD9E"/>
<path d="M22.5531 30.6131L21.8943 30.1594H18.0923L17.4335 30.6131L17.0903 33.6513L17.406 33.3489H22.5805L22.9237 33.6513L22.5531 30.6131Z" fill="#161616"/>
<path fill-rule="evenodd" clip-rule="evenodd" d="M18.0532 30.1029C18.0646 30.095 18.0782 30.0908 18.0921 30.0908H21.894C21.9079 30.0908 21.9215 30.095 21.933 30.1029L22.5918 30.5566C22.608 30.5677 22.6186 30.5853 22.621 30.6048L22.9916 33.643C22.995 33.6713 22.9806 33.6988 22.9554 33.712C22.9302 33.7253 22.8994 33.7216 22.8781 33.7028L22.5544 33.4175H17.4334L17.1376 33.7009C17.1167 33.7209 17.0856 33.7256 17.0597 33.7128C17.0338 33.7 17.0187 33.6723 17.0219 33.6436L17.3651 30.6054C17.3673 30.5856 17.378 30.5678 17.3943 30.5566L18.0532 30.1029ZM18.1134 30.228L17.4979 30.6519L17.1796 33.4706L17.3583 33.2993C17.3711 33.2871 17.3881 33.2802 17.4058 33.2802H22.5803C22.597 33.2802 22.6132 33.2863 22.6257 33.2974L22.8335 33.4805L22.4885 30.6521L21.8727 30.228H18.1134Z" fill="#161616"/>
<path d="M36.3333 14.5693L37.5 8.96021L35.7569 3.74985L22.5529 13.5657L27.6314 17.8687L34.8098 19.9721L36.402 18.1161L35.7157 17.6212L36.8137 16.6177L35.9627 15.9578L37.0608 15.1192L36.3333 14.5693ZM2.5 8.96021L3.66667 14.5693L2.92549 15.1192L4.02353 15.9578L3.18627 16.6177L4.28431 17.6212L3.59804 18.1161L5.17647 19.9721L12.3549 17.8687L17.4333 13.5657L4.22941 3.74985L2.5 8.96021Z" fill="#763D16"/>
<path fill-rule="evenodd" clip-rule="evenodd" d="M4.20879 3.68439C4.2298 3.67777 4.2527 3.68163 4.27038 3.69477L17.4743 13.5106C17.4911 13.5231 17.5013 13.5426 17.502 13.5635C17.5026 13.5844 17.4937 13.6045 17.4777 13.618L12.3993 17.921C12.392 17.9272 12.3834 17.9318 12.3742 17.9345L5.19579 20.0379C5.1698 20.0456 5.14176 20.0372 5.12422 20.0165L3.54579 18.1606C3.53338 18.146 3.52763 18.1269 3.52993 18.1079C3.53224 18.0889 3.54239 18.0717 3.55792 18.0605L4.17573 17.6149L3.14 16.6683C3.12513 16.6547 3.11698 16.6353 3.11772 16.6151C3.11845 16.595 3.128 16.5762 3.14382 16.5638L3.9116 15.9586L2.88386 15.1737C2.86673 15.1606 2.85674 15.1402 2.85689 15.1187C2.85704 15.0971 2.86731 15.0769 2.88462 15.064L3.59057 14.5403L2.43283 8.97418C2.43037 8.96234 2.43108 8.95006 2.43489 8.93859L4.1643 3.72822C4.17124 3.70732 4.18779 3.69102 4.20879 3.68439ZM35.7775 3.68437C35.7984 3.69096 35.815 3.70721 35.822 3.72807L37.5651 8.93843C37.569 8.94995 37.5697 8.96229 37.5672 8.97418L36.4094 14.5407L37.1022 15.0644C37.1193 15.0773 37.1294 15.0975 37.1294 15.119C37.1295 15.1404 37.1195 15.1607 37.1025 15.1737L36.0753 15.9582L36.8558 16.5634C36.8718 16.5758 36.8815 16.5947 36.8823 16.6149C36.8831 16.6351 36.875 16.6547 36.86 16.6683L35.8243 17.6149L36.4421 18.0605C36.4577 18.0717 36.4679 18.089 36.4701 18.108C36.4724 18.1271 36.4666 18.1463 36.4541 18.1608L34.8619 20.0168C34.8444 20.0372 34.8164 20.0455 34.7905 20.0379L27.6121 17.9345C27.6029 17.9318 27.5944 17.9272 27.587 17.921L22.5086 13.618C22.4926 13.6045 22.4837 13.5844 22.4844 13.5635C22.485 13.5426 22.4952 13.5231 22.512 13.5106L35.7159 3.69477C35.7336 3.68164 35.7565 3.67778 35.7775 3.68437ZM4.26467 3.86155L2.57097 8.9643L3.73388 14.5553C3.73933 14.5815 3.72906 14.6084 3.70758 14.6244L3.03962 15.1199L4.06521 15.9032C4.08206 15.9161 4.09202 15.936 4.09218 15.9572C4.09234 15.9784 4.08269 15.9985 4.06603 16.0117L3.29226 16.6215L4.33064 17.5706C4.34589 17.5845 4.35405 17.6046 4.35285 17.6252C4.35166 17.6458 4.34124 17.6648 4.32448 17.6769L3.69851 18.1283L5.19993 19.8937L12.3217 17.8069L17.3231 13.5692L4.26467 3.86155ZM22.6633 13.5692L27.6647 17.8069L34.7866 19.8938L36.3013 18.1281L35.6756 17.6769C35.6588 17.6648 35.6484 17.6458 35.6472 17.6252C35.646 17.6046 35.6542 17.5845 35.6694 17.5706L36.7073 16.622L35.9207 16.012C35.9039 15.9989 35.8941 15.9788 35.8941 15.9575C35.8942 15.9362 35.9042 15.9162 35.9211 15.9032L36.9474 15.1194L36.292 14.624C36.2708 14.608 36.2608 14.5812 36.2662 14.5553L37.4291 8.96439L35.7218 3.86141L22.6633 13.5692Z" fill="#763D16"/>
<path d="M34.8097 19.9722L27.6312 17.8688L29.8136 21.1545L26.5606 27.4784L30.843 27.4234H37.2253L34.8097 19.9722ZM12.3548 17.8688L5.17632 19.9722L2.78809 27.4234H9.15671L13.4253 27.4784L10.1861 21.1545L12.3548 17.8688ZM22.0999 21.4982L22.5528 13.5658L24.6391 7.91547H15.3744L17.4332 13.5658L17.9136 21.4982L18.0783 24.0002L18.092 30.1592H21.894L21.9214 24.0002L22.0999 21.4982Z" fill="#F6851B"/>
<path fill-rule="evenodd" clip-rule="evenodd" d="M15.3182 7.87611C15.331 7.85776 15.352 7.84683 15.3744 7.84683H24.6391C24.6615 7.84683 24.6826 7.85781 24.6954 7.87623C24.7082 7.89464 24.7113 7.91817 24.7035 7.93923L22.6208 13.5799L22.1684 21.5021L21.9901 24.0028L21.9626 30.1595C21.9625 30.1973 21.9318 30.2278 21.894 30.2278H18.092C18.0542 30.2278 18.0235 30.1972 18.0234 30.1593L18.0097 24.0026L17.8451 21.5027L17.3653 13.5799L15.3099 7.93896C15.3022 7.91791 15.3053 7.89445 15.3182 7.87611ZM15.4724 7.98409L17.4977 13.5423C17.5 13.5485 17.5013 13.555 17.5017 13.5616L17.9821 21.4936L18.1471 24.0001L18.1605 30.0905H21.8257L21.8528 23.9953L22.0314 21.4942L22.4843 13.5618C22.4847 13.555 22.4861 13.5484 22.4884 13.542L24.5406 7.98409H15.4724ZM27.576 17.8281C27.5931 17.8048 27.6229 17.7948 27.6505 17.8029L34.829 19.9063C34.8508 19.9127 34.868 19.9294 34.875 19.951L37.2907 27.4022C37.2974 27.4231 37.2938 27.446 37.2809 27.4637C37.268 27.4815 37.2473 27.492 37.2254 27.492H30.8434L26.5615 27.547C26.5375 27.5473 26.515 27.535 26.5023 27.5145C26.4896 27.494 26.4886 27.4684 26.4996 27.447L29.7342 21.1589L27.5741 17.9067C27.5581 17.8827 27.5589 17.8513 27.576 17.8281ZM12.41 17.828C12.4271 17.8512 12.4279 17.8825 12.4121 17.9066L10.2655 21.1588L13.4864 27.4471C13.4974 27.4685 13.4964 27.4941 13.4837 27.5145C13.471 27.535 13.4485 27.5473 13.4245 27.547L9.15674 27.492H2.78811C2.76619 27.492 2.74559 27.4815 2.73267 27.4638C2.71975 27.4461 2.71607 27.4233 2.72276 27.4024L5.11099 19.9512C5.11794 19.9295 5.1352 19.9127 5.15705 19.9063L12.3355 17.8029C12.3631 17.7948 12.3929 17.8048 12.41 17.828ZM5.23059 20.0278L2.88217 27.3548H9.15674L13.3124 27.4083L10.1251 21.1857C10.1138 21.1637 10.1152 21.1373 10.1289 21.1167L12.1943 17.9873L5.23059 20.0278ZM27.7925 17.9875L29.8708 21.1165C29.8845 21.1372 29.886 21.1637 29.8746 21.1858L26.6739 27.4083L30.8421 27.3548L37.131 27.3548L34.7556 20.0278L27.7925 17.9875Z" fill="#F6851B"/>
</svg>
