<svg width="40" height="40" viewBox="0 0 40 40" fill="none" xmlns="http://www.w3.org/2000/svg">
<path d="M9.31322 34C12.8863 34 15.5715 30.5349 17.174 27.7968C16.9791 28.4026 16.8708 29.0083 16.8708 29.59C16.8708 31.1892 17.6937 32.3281 19.3179 32.3281C21.5483 32.3281 23.9304 30.1472 25.1647 27.7968C25.0781 28.1361 25.0348 28.4511 25.0348 28.7418C25.0348 29.8565 25.5979 30.5592 26.7455 30.5592C30.3619 30.5592 34 23.411 34 17.1594C34 12.2889 31.7911 8 26.2475 8C16.5027 8 6 21.2787 6 29.8565C6 33.2246 7.62412 34 9.31322 34ZM22.8909 16.6263C22.8909 15.4147 23.4972 14.5666 24.3852 14.5666C25.2513 14.5666 25.8577 15.4147 25.8577 16.6263C25.8577 17.8378 25.2513 18.7102 24.3852 18.7102C23.4972 18.7102 22.8909 17.8378 22.8909 16.6263ZM27.5252 16.6263C27.5252 15.4147 28.1315 14.5666 29.0193 14.5666C29.8855 14.5666 30.4918 15.4147 30.4918 16.6263C30.4918 17.8378 29.8855 18.7102 29.0193 18.7102C28.1315 18.7102 27.5252 17.8378 27.5252 16.6263Z" fill="#AB9FF2"/>
</svg>
